<svg aria-hidden="true" style="position: absolute; width: 0; height: 0; overflow: hidden;" version="1.1" xmlns="http://www.w3.org/2000/svg" xmlns:xlink="http://www.w3.org/1999/xlink">
<defs>
<symbol id="icon-logo" viewBox="0 0 32 32">
<path d="M29.082 0.314h-4.009c-1.237 0-2.24 0.983-2.24 2.195v3.929c0 1.212 1.003 2.195 2.24 2.195h4.009c1.237 0 2.24-0.983 2.24-2.195v-3.929c0-1.212-1.003-2.195-2.24-2.195z"></path>
<path d="M6.73 23.040h-4.318c-1.332 0-2.412 0.983-2.412 2.195v3.929c0 1.213 1.080 2.195 2.412 2.195h4.318c1.332 0 2.412-0.983 2.412-2.195v-3.929c0-1.212-1.080-2.195-2.412-2.195z"></path>
<path d="M6.25 11.582h-4.009c-1.237 0-2.24 0.983-2.24 2.195v3.929c0 1.212 1.003 2.195 2.24 2.195h4.009c1.237 0 2.24-0.983 2.24-2.195v-3.929c0-1.212-1.003-2.195-2.24-2.195z"></path>
<path d="M17.766 22.978h-4.009c-1.237 0-2.24 0.983-2.24 2.195l-0 3.929c0 1.212 1.003 2.195 2.241 2.195h4.009c1.237 0 2.24-0.983 2.24-2.195v-3.929c0-1.213-1.003-2.195-2.24-2.195z"></path>
<path d="M6.25 0.086h-4.009c-1.237 0-2.24 0.983-2.24 2.195v3.929c0 1.212 1.003 2.195 2.24 2.195h4.009c1.237 0 2.24-0.983 2.24-2.195v-3.929c0-1.212-1.003-2.195-2.24-2.195z"></path>
<path d="M18.076 11.697h-4.009c-1.237 0-2.24 0.983-2.24 2.195v3.929c0 1.212 1.003 2.195 2.24 2.195h4.009c1.237 0 2.24-0.983 2.24-2.195v-3.929c0-1.212-1.003-2.195-2.24-2.195z"></path>
<path d="M29.333 22.978h-4.010c-1.237 0-2.24 0.983-2.24 2.195v3.929c0 1.212 1.003 2.195 2.24 2.195h4.009c1.237 0 2.24-0.983 2.24-2.195v-3.929c0-1.213-1.003-2.195-2.24-2.195z"></path>
<path d="M17.591 0.224h-4.009c-1.237 0-2.24 0.983-2.24 2.195v3.929c0 1.212 1.003 2.195 2.24 2.195h4.009c1.237 0 2.24-0.984 2.24-2.196v-3.929c0-1.212-1.003-2.195-2.24-2.195z"></path>
<path d="M29.044 11.926h-4.010c-1.237 0-2.24 0.983-2.24 2.195v3.929c0 1.212 1.003 2.195 2.24 2.195h4.009c1.237 0 2.24-0.983 2.24-2.195v-3.929c0-1.212-1.003-2.195-2.24-2.195z"></path>
</symbol>
<symbol id="icon-basket" viewBox="0 0 32 32">
<path d="M12.816 8.112c0.552-0.768 1.485-1.445 3.184-1.445s2.632 0.677 3.185 1.445c0.601 0.836 0.815 1.879 0.815 2.555v1.333h-8v-1.333c0-0.675 0.213-1.719 0.816-2.555zM22.667 12h5.333c0.354 0 0.693 0.14 0.943 0.391s0.391 0.589 0.391 0.943c0 0.354-0.141 0.693-0.391 0.943s-0.589 0.391-0.943 0.391h-0.127l-1.213 12.133c-0.033 0.329-0.187 0.634-0.432 0.855s-0.564 0.345-0.894 0.345h-18.667c-0.331 0-0.649-0.123-0.894-0.345s-0.399-0.527-0.432-0.855l-1.213-12.133h-0.127c-0.354 0-0.693-0.141-0.943-0.391s-0.391-0.589-0.391-0.943c0-0.354 0.14-0.693 0.391-0.943s0.589-0.391 0.943-0.391h5.333v-1.333c0-1.103 0.32-2.725 1.317-4.112 1.048-1.455 2.781-2.555 5.349-2.555s4.301 1.1 5.349 2.555c0.997 1.387 1.317 3.009 1.317 4.112v1.333zM12 18.667c0-0.354-0.14-0.693-0.391-0.943s-0.589-0.391-0.943-0.391c-0.354 0-0.693 0.141-0.943 0.391s-0.391 0.589-0.391 0.943v2.667c0 0.354 0.14 0.693 0.391 0.943s0.589 0.391 0.943 0.391c0.354 0 0.693-0.141 0.943-0.391s0.391-0.589 0.391-0.943v-2.667zM17.333 18.667c0-0.354-0.141-0.693-0.391-0.943s-0.589-0.391-0.943-0.391c-0.354 0-0.693 0.141-0.943 0.391s-0.391 0.589-0.391 0.943v2.667c0 0.354 0.141 0.693 0.391 0.943s0.589 0.391 0.943 0.391c0.354 0 0.693-0.141 0.943-0.391s0.391-0.589 0.391-0.943v-2.667zM22.667 18.667c0-0.354-0.141-0.693-0.391-0.943s-0.589-0.391-0.943-0.391c-0.354 0-0.693 0.141-0.943 0.391s-0.391 0.589-0.391 0.943v2.667c0 0.354 0.141 0.693 0.391 0.943s0.589 0.391 0.943 0.391c0.354 0 0.693-0.141 0.943-0.391s0.391-0.589 0.391-0.943v-2.667z"></path>
</symbol>
<symbol id="icon-arrow" viewBox="0 0 32 32">
<path d="M32 4.741l-4.741-4.741v23.704l-23.704-23.704-3.556 3.556 23.704 23.704h-23.704l4.741 4.741h27.259v-27.259z"></path>
</symbol>
<symbol id="icon-menu" viewBox="0 0 46 32">
<path d="M0 2.274c0-1.257 1.019-2.274 2.274-2.274h18.309c0.603 0 1.182 0.24 1.608 0.666s0.666 1.005 0.666 1.608c0 0.603-0.24 1.182-0.666 1.608s-1.005 0.666-1.608 0.666h-18.309c-0.603 0-1.182-0.24-1.608-0.666s-0.666-1.005-0.666-1.608zM0 16c0-1.257 1.019-2.274 2.274-2.274h41.166c0.603 0 1.182 0.24 1.608 0.666s0.666 1.005 0.666 1.608c0 0.603-0.24 1.182-0.666 1.608s-1.005 0.666-1.608 0.666h-41.166c-0.603 0-1.182-0.24-1.608-0.666s-0.666-1.005-0.666-1.608zM2.274 27.451c-0.603 0-1.182 0.24-1.608 0.666s-0.666 1.005-0.666 1.608c0 0.603 0.24 1.182 0.666 1.608s1.005 0.666 1.608 0.666h27.451c0.603 0 1.182-0.24 1.608-0.666s0.666-1.005 0.666-1.608c0-0.603-0.24-1.182-0.666-1.608s-1.005-0.666-1.608-0.666h-27.451z"></path>
</symbol>
</defs>
</svg>
